<svg width="93" height="18" viewBox="0 0 93 18" fill="#FAAA4C" xmlns="http://www.w3.org/2000/svg">
<path d="M3.01816 17.2954L5.14659 10.9698L0.0144865 7.52852H6.30032L8.54811 0.745383L10.8357 7.52852H17.0817L11.9496 10.9698L14.1178 17.2954L8.54811 13.2574L3.01816 17.2954ZM21.9147 17.2954L24.0431 10.9698L18.911 7.52852H25.1968L27.4446 0.745383L29.7322 7.52852H35.9782L30.8461 10.9698L33.0144 17.2954L27.4446 13.2574L21.9147 17.2954ZM40.8112 17.2954L42.9396 10.9698L37.8075 7.52852H44.0934L46.3411 0.745383L48.6287 7.52852H54.8748L49.7427 10.9698L51.9109 17.2954L46.3411 13.2574L40.8112 17.2954ZM59.7077 17.2954L61.8362 10.9698L56.704 7.52852H62.9899L65.2377 0.745383L67.5252 7.52852H73.7713L68.6392 10.9698L70.8074 17.2954L65.2377 13.2574L59.7077 17.2954ZM78.6042 17.2954L80.7327 10.9698L75.6006 7.52852H81.8864L84.1342 0.745383L86.4218 7.52852H92.6678L87.5357 10.9698L89.7039 17.2954L84.1342 13.2574L78.6042 17.2954Z" fill="#FAAA4C"/>
</svg>
